<svg xmlns="http://www.w3.org/2000/svg" xmlns:v="https://svgstorm.com"
viewBox = "0 0 500 500"
width="500"
height="500">
<g fill="None" fill-opacity="0.0" stroke="#000000" stroke-opacity="0.00" stroke-width="0.3"><path d="
M 0.00 500.00 
L 500.00 500.00
L 500.00 0.00
L 0.00 0.00
L 0.00 500.00
M 382.00 42.00 
C 385.58 42.28 389.54 43.01 393.00 44.00
C 394.02 44.29 394.96 44.73 396.00 45.00
C 398.01 45.53 399.99 45.38 402.00 46.00
C 418.09 48.66 440.41 65.29 447.00 82.00
C 447.17 82.43 447.00 83.00 447.00 83.00
C 452.03 86.14 455.86 98.34 456.00 104.00
C 456.01 104.50 455.88 105.53 456.00 106.00
C 456.22 106.84 456.90 107.64 457.00 109.00
C 457.09 110.32 456.87 111.68 457.00 113.00
C 457.17 114.74 457.81 116.15 458.00 118.00
C 462.03 136.37 458.34 157.51 459.00 177.00 C 459.66 196.49 459.72 218.45 459.00 238.00 C 458.28 257.55 462.05 279.57 458.00 298.00
C 458.00 298.99 458.05 300.01 458.00 301.00
C 457.91 302.71 457.32 303.46 457.00 305.00
C 456.90 305.48 456.97 306.50 457.00 307.00
C 457.11 309.22 456.52 310.41 456.00 312.00
C 455.82 313.87 454.56 314.66 454.00 316.00
C 447.82 330.81 441.93 343.95 429.00 355.00
C 427.02 356.69 425.00 357.79 423.00 359.00
C 419.29 361.84 416.27 363.98 412.00 366.00
C 409.64 367.12 407.34 368.02 405.00 369.00
C 403.57 369.60 402.42 370.23 401.00 371.00
C 399.03 372.07 397.45 372.54 395.00 373.00
C 370.14 377.63 343.85 374.33 318.00 375.00 C 292.15 375.67 264.97 375.00 239.00 375.00
C 237.32 380.75 226.79 384.46 223.25 390.25 C 219.71 396.03 212.47 400.50 207.75 405.75 C 203.03 411.00 196.60 416.62 192.00 422.00
C 190.41 423.86 189.09 425.71 187.00 427.00
C 186.68 427.20 186.20 427.68 186.00 428.00
C 180.49 436.92 168.34 447.80 160.00 454.00
C 156.69 456.46 153.08 457.89 150.00 458.00
C 147.12 458.11 143.85 458.35 141.00 458.00
C 131.84 456.86 125.61 448.91 125.00 440.00
C 123.69 420.81 125.38 401.24 125.00 382.00
C 124.85 380.76 124.06 376.31 123.00 375.00
C 122.51 374.93 122.00 375.00 122.00 375.00
C 120.34 375.00 118.66 375.08 117.00 375.00
C 115.39 374.92 113.99 374.17 113.00 374.00
C 112.00 374.00 111.00 374.03 110.00 374.00
C 106.95 373.90 104.41 373.16 102.00 372.00
C 100.74 371.79 99.85 370.41 99.00 370.00
C 93.29 367.22 86.76 366.58 82.00 362.00
C 80.31 361.00 78.59 360.13 77.00 359.00
C 75.01 357.58 72.93 356.44 71.00 355.00
C 65.49 350.91 60.97 345.34 57.00 340.00
C 48.37 330.12 42.87 312.81 42.00 300.00
C 36.92 271.64 41.45 238.45 41.00 209.00 C 40.55 179.55 38.12 146.48 42.00 118.00
C 42.00 116.67 41.95 115.33 42.00 114.00
C 42.07 112.10 42.54 111.34 43.00 110.00
C 44.68 98.85 50.19 88.29 56.00 79.00
C 57.23 77.03 58.70 75.69 60.00 74.00
C 65.88 66.33 72.49 59.59 81.00 55.00
C 81.77 54.39 82.08 53.58 83.00 53.00
C 88.94 47.29 98.72 43.85 107.00 43.00
C 109.75 42.72 112.48 42.31 115.00 42.00
C 116.29 41.84 117.70 42.00 119.00 42.00
C 146.79 38.21 177.25 41.37 206.00 41.00 C 234.75 40.63 265.27 39.67 294.00 41.00 C 322.73 42.33 354.47 36.69 382.00 42.00 Z"/>
</g>
<g fill="None" fill-opacity="0.0" stroke="#0F2D5F" stroke-opacity="0.16" stroke-width="0.3"><path d="
M 119.00 42.00 
C 120.00 42.00 121.00 42.00 122.00 42.00
C 165.21 42.00 208.83 40.72 252.00 42.00 C 295.17 43.28 338.99 38.59 382.00 42.00
C 354.47 36.69 322.73 42.33 294.00 41.00 C 265.27 39.67 234.75 40.63 206.00 41.00 C 177.25 41.37 146.79 38.21 119.00 42.00 Z"/>
</g>
<g fill="None" fill-opacity="0.0" stroke="#2875E1" stroke-opacity="1.00" stroke-width="0.3"><path d="
M 107.00 43.00 
C 103.73 43.68 98.47 45.76 95.00 47.00
C 93.45 47.71 91.90 49.24 90.00 50.00
C 88.34 50.66 86.65 51.10 85.00 52.00
C 83.64 52.89 82.62 54.13 81.00 55.00
C 72.49 59.59 65.88 66.33 60.00 74.00
C 59.24 75.67 56.78 78.21 56.00 79.00
C 50.19 88.29 44.68 98.85 43.00 110.00
C 42.86 110.94 43.00 112.05 43.00 113.00
C 43.48 114.95 45.05 117.01 43.00 119.00
C 42.95 119.15 42.00 119.00 42.00 119.00
C 42.00 149.06 41.22 178.92 42.00 209.00 C 42.78 239.08 39.95 269.95 42.00 300.00
C 42.87 312.81 48.37 330.12 57.00 340.00
C 57.22 340.25 58.00 340.00 58.00 340.00
C 66.18 344.00 75.65 355.89 82.00 362.00
C 86.76 366.58 93.29 367.22 99.00 370.00
C 101.88 370.42 101.49 370.52 104.00 372.00
C 104.93 372.00 106.09 372.17 107.00 372.00
C 108.84 371.65 119.12 370.72 117.00 374.00
C 116.77 374.35 117.00 375.00 117.00 375.00
C 118.66 375.08 120.34 375.00 122.00 375.00
C 120.13 371.89 130.06 376.59 127.00 383.00 C 123.94 389.41 128.84 397.12 127.00 403.00 C 125.16 408.88 128.77 417.20 127.00 422.00 C 125.23 426.80 130.25 438.87 126.00 441.00
C 126.44 443.35 126.93 444.83 128.00 447.00
C 129.34 449.17 132.87 453.46 135.00 455.00
C 136.52 455.93 139.63 457.72 141.00 458.00
C 143.85 458.35 147.12 458.11 150.00 458.00
C 152.56 457.55 155.88 455.47 158.00 454.00
C 164.96 448.34 170.22 440.04 177.25 434.25 C 184.28 428.45 190.26 419.95 197.25 414.25 C 204.24 408.55 209.52 399.72 216.75 394.75 C 223.98 389.78 228.86 377.81 237.00 375.00
C 237.45 374.85 238.50 375.00 239.00 375.00
C 264.97 375.00 292.15 375.67 318.00 375.00 C 343.85 374.33 370.14 377.63 395.00 373.00
C 395.86 372.64 396.86 371.40 398.00 371.00
C 401.11 369.02 402.22 369.42 405.00 369.00
C 407.34 368.02 409.64 367.12 412.00 366.00
C 412.27 365.82 412.67 365.17 413.00 365.00
C 416.90 359.81 426.66 355.90 429.00 355.00
C 441.93 343.95 447.82 330.81 454.00 316.00
C 454.24 313.69 452.69 310.53 456.00 309.00
C 456.00 308.50 456.00 308.00 456.00 308.00
C 454.11 306.05 456.28 306.45 457.00 305.00
C 457.32 303.46 457.91 302.71 458.00 301.00
C 458.00 300.17 457.91 297.92 458.00 297.00
C 458.02 267.35 459.13 237.65 458.00 208.00 C 456.87 178.35 460.98 147.52 458.00 118.00
C 457.81 116.15 457.17 114.74 457.00 113.00
C 456.73 112.25 455.13 113.13 455.04 110.96 C 454.94 108.80 456.83 109.77 457.00 109.00
C 456.90 107.64 456.22 106.84 456.00 106.00
C 455.68 105.66 452.36 106.97 455.00 104.00
C 454.11 97.46 450.85 90.79 448.00 85.00
C 447.87 84.78 447.00 85.00 447.00 85.00
C 444.86 83.54 439.01 75.59 440.00 74.00
C 439.81 73.59 440.00 73.00 440.00 73.00
C 434.91 69.44 431.09 64.09 426.00 61.00
C 420.39 57.60 415.11 53.73 410.00 50.00
C 407.53 48.87 404.86 46.89 402.00 46.00
C 399.99 45.38 398.01 45.53 396.00 45.00
C 393.77 44.87 394.73 44.75 393.00 44.00
C 389.54 43.01 385.58 42.28 382.00 42.00
C 338.99 38.59 295.17 43.28 252.00 42.00 C 208.83 40.72 165.21 42.00 122.00 42.00
C 120.13 42.18 116.67 42.00 115.00 42.00
C 112.48 42.31 109.75 42.72 107.00 43.00
M 187.00 204.00 
C 188.09 210.08 187.34 214.38 185.00 220.00
C 175.81 255.44 118.69 237.38 125.33 203.33 C 131.97 169.28 184.63 169.19 187.00 204.00
M 276.00 226.00 
C 272.16 231.16 267.65 234.70 262.00 237.00
C 228.92 250.46 203.97 206.95 230.25 184.25 C 256.53 161.54 297.05 197.69 276.00 226.00
M 357.00 180.00 
C 364.53 182.92 371.93 191.25 374.00 199.00
C 382.50 230.81 341.48 254.29 319.75 228.25 C 298.02 202.21 327.58 168.59 357.00 180.00 Z"/>
</g>
<g fill="None" fill-opacity="0.0" stroke="#3F67AC" stroke-opacity="0.34" stroke-width="0.3"><path d="
M 122.00 42.00 
C 121.00 42.00 120.00 42.00 119.00 42.00
C 117.70 42.00 116.29 41.84 115.00 42.00
C 116.67 42.00 120.13 42.18 122.00 42.00 Z"/>
</g>
<g fill="None" fill-opacity="0.0" stroke="#001C4F" stroke-opacity="0.10" stroke-width="0.3"><path d="
M 83.00 53.00 
C 83.66 52.59 84.34 52.36 85.00 52.00
C 86.65 51.10 88.34 50.66 90.00 50.00
C 91.57 49.22 93.12 47.67 95.00 47.00
C 98.47 45.76 103.73 43.68 107.00 43.00
C 98.72 43.85 88.94 47.29 83.00 53.00 Z"/>
</g>
<g fill="None" fill-opacity="0.0" stroke="#3B6FC2" stroke-opacity="0.73" stroke-width="0.3"><path d="
M 396.00 45.00 
C 394.96 44.73 394.02 44.29 393.00 44.00
C 394.73 44.75 393.77 44.87 396.00 45.00 Z"/>
</g>
<g fill="None" fill-opacity="0.0" stroke="#011B4A" stroke-opacity="0.10" stroke-width="0.3"><path d="
M 402.00 46.00 
C 404.86 46.89 407.53 48.87 410.00 50.00
C 410.85 50.39 412.05 50.57 413.00 51.00
C 414.89 51.85 416.53 52.82 418.00 54.00
C 418.50 54.05 419.00 54.00 419.00 54.00
C 425.49 58.96 436.20 65.23 440.00 73.00
C 440.00 73.00 439.81 73.59 440.00 74.00
C 440.12 74.26 440.83 74.67 441.00 75.00
C 442.58 76.54 443.79 78.06 445.00 80.00
C 445.22 80.36 445.00 81.00 445.00 81.00
C 445.21 81.42 446.86 81.72 447.00 82.00
C 440.41 65.29 418.09 48.66 402.00 46.00 Z"/>
</g>
<g fill="None" fill-opacity="0.0" stroke="#255494" stroke-opacity="0.41" stroke-width="0.3"><path d="
M 90.00 50.00 
C 91.90 49.24 93.45 47.71 95.00 47.00
C 93.12 47.67 91.57 49.22 90.00 50.00 Z"/>
</g>
<g fill="None" fill-opacity="0.0" stroke="#3870C1" stroke-opacity="0.78" stroke-width="0.3"><path d="
M 426.00 61.00 
C 423.64 59.19 420.74 56.50 419.00 54.00
C 419.00 54.00 418.50 54.05 418.00 54.00
C 415.39 53.76 414.79 52.17 413.00 51.00
C 412.05 50.57 410.85 50.39 410.00 50.00
C 415.11 53.73 420.39 57.60 426.00 61.00 Z"/>
</g>
<g fill="None" fill-opacity="0.0" stroke="#2C5A9A" stroke-opacity="0.47" stroke-width="0.3"><path d="
M 418.00 54.00 
C 416.53 52.82 414.89 51.85 413.00 51.00
C 414.79 52.17 415.39 53.76 418.00 54.00 Z"/>
</g>
<g fill="None" fill-opacity="0.0" stroke="#28558C" stroke-opacity="0.35" stroke-width="0.3"><path d="
M 83.00 53.00 
C 82.08 53.58 81.77 54.39 81.00 55.00
C 82.62 54.13 83.64 52.89 85.00 52.00
C 84.34 52.36 83.66 52.59 83.00 53.00 Z"/>
</g>
<g fill="None" fill-opacity="0.0" stroke="#2B5495" stroke-opacity="0.42" stroke-width="0.3"><path d="
M 426.00 61.00 
C 431.09 64.09 434.91 69.44 440.00 73.00
C 436.20 65.23 425.49 58.96 419.00 54.00
C 420.74 56.50 423.64 59.19 426.00 61.00 Z"/>
</g>
<g fill="None" fill-opacity="0.0" stroke="#3466B4" stroke-opacity="0.63" stroke-width="0.3"><path d="
M 56.00 79.00 
C 56.78 78.21 59.24 75.67 60.00 74.00
C 58.70 75.69 57.23 77.03 56.00 79.00 Z"/>
</g>
<g fill="None" fill-opacity="0.0" stroke="#3B74C5" stroke-opacity="0.77" stroke-width="0.3"><path d="
M 447.00 85.00 
C 446.18 83.93 445.44 82.26 445.00 81.00
C 445.00 81.00 445.22 80.36 445.00 80.00
C 442.87 78.61 442.09 77.19 441.00 75.00
C 440.83 74.67 440.12 74.26 440.00 74.00
C 439.01 75.59 444.86 83.54 447.00 85.00 Z"/>
</g>
<g fill="None" fill-opacity="0.0" stroke="#245596" stroke-opacity="0.41" stroke-width="0.3"><path d="
M 445.00 80.00 
C 443.79 78.06 442.58 76.54 441.00 75.00
C 442.09 77.19 442.87 78.61 445.00 80.00 Z"/>
</g>
<g fill="None" fill-opacity="0.0" stroke="#265790" stroke-opacity="0.35" stroke-width="0.3"><path d="
M 447.00 85.00 
C 447.00 85.00 447.87 84.78 448.00 85.00
C 447.65 84.28 447.15 83.81 447.00 83.00
C 447.00 83.00 447.17 82.43 447.00 82.00
C 446.86 81.72 445.21 81.42 445.00 81.00
C 445.44 82.26 446.18 83.93 447.00 85.00 Z"/>
</g>
<g fill="None" fill-opacity="0.0" stroke="#05265C" stroke-opacity="0.11" stroke-width="0.3"><path d="
M 448.00 85.00 
C 450.85 90.79 454.11 97.46 455.00 104.00
C 455.01 104.07 456.00 104.00 456.00 104.00
C 455.86 98.34 452.03 86.14 447.00 83.00
C 447.15 83.81 447.65 84.28 448.00 85.00 Z"/>
</g>
<g fill="None" fill-opacity="0.0" stroke="#356CBB" stroke-opacity="0.63" stroke-width="0.3"><path d="
M 456.00 106.00 
C 455.88 105.53 456.01 104.50 456.00 104.00
C 456.00 104.00 455.01 104.07 455.00 104.00
C 452.36 106.97 455.68 105.66 456.00 106.00 Z"/>
</g>
<g fill="None" fill-opacity="0.0" stroke="#356DBE" stroke-opacity="0.66" stroke-width="0.3"><path d="
M 457.00 113.00 
C 456.87 111.68 457.09 110.32 457.00 109.00
C 456.83 109.77 454.94 108.80 455.04 110.96 C 455.13 113.13 456.73 112.25 457.00 113.00 Z"/>
</g>
<g fill="None" fill-opacity="0.0" stroke="#062754" stroke-opacity="0.08" stroke-width="0.3"><path d="
M 42.00 114.00 
C 42.13 113.78 43.00 114.00 43.00 114.00
C 43.00 113.50 43.00 113.00 43.00 113.00
C 43.00 112.05 42.86 110.94 43.00 110.00
C 42.54 111.34 42.07 112.10 42.00 114.00 Z"/>
</g>
<g fill="None" fill-opacity="0.0" stroke="#3E72C8" stroke-opacity="0.84" stroke-width="0.3"><path d="
M 43.00 114.00 
C 43.00 115.39 43.45 117.69 43.00 119.00
C 45.05 117.01 43.48 114.95 43.00 113.00
C 43.00 113.00 43.00 113.50 43.00 114.00 Z"/>
</g>
<g fill="None" fill-opacity="0.0" stroke="#365A9E" stroke-opacity="0.26" stroke-width="0.3"><path d="
M 42.00 118.00 
C 42.00 118.50 42.00 119.00 42.00 119.00
C 42.00 119.00 42.95 119.15 43.00 119.00
C 43.45 117.69 43.00 115.39 43.00 114.00
C 43.00 114.00 42.13 113.78 42.00 114.00
C 41.95 115.33 42.00 116.67 42.00 118.00 Z"/>
</g>
<g fill="None" fill-opacity="0.0" stroke="#0A2B5E" stroke-opacity="0.12" stroke-width="0.3"><path d="
M 42.00 300.00 
C 39.95 269.95 42.78 239.08 42.00 209.00 C 41.22 178.92 42.00 149.06 42.00 119.00
C 42.00 119.00 42.00 118.50 42.00 118.00
C 38.12 146.48 40.55 179.55 41.00 209.00 C 41.45 238.45 36.92 271.64 42.00 300.00 Z"/>
</g>
<g fill="None" fill-opacity="0.0" stroke="#0E2C5D" stroke-opacity="0.11" stroke-width="0.3"><path d="
M 458.00 297.00 
C 458.00 297.50 458.00 298.00 458.00 298.00
C 462.05 279.57 458.28 257.55 459.00 238.00 C 459.72 218.45 459.66 196.49 459.00 177.00 C 458.34 157.51 462.03 136.37 458.00 118.00
C 460.98 147.52 456.87 178.35 458.00 208.00 C 459.13 237.65 458.02 267.35 458.00 297.00 Z"/>
</g>
<g fill="None" fill-opacity="0.0" stroke="#CEE2F9" stroke-opacity="1.00" stroke-width="0.3"><path d="
M 185.00 220.00 
C 186.33 214.87 187.38 209.59 187.00 204.00
C 184.63 169.19 131.97 169.28 125.33 203.33 C 118.69 237.38 175.81 255.44 185.00 220.00
M 129.00 197.00 
C 133.37 193.51 135.71 184.90 143.22 182.22 C 150.74 179.54 159.36 177.51 167.02 180.98 C 174.69 184.44 177.75 187.88 181.92 195.08 C 186.10 202.28 186.22 210.31 183.22 218.22 C 180.22 226.14 175.86 228.64 169.30 233.30 C 162.74 237.95 153.61 237.69 145.93 235.07 C 138.24 232.45 134.15 228.51 131.02 220.98 C 127.90 213.44 125.23 205.25 129.00 197.00 Z"/>
</g>
<g fill="None" fill-opacity="0.0" stroke="#CFE4FB" stroke-opacity="1.00" stroke-width="0.3"><path d="
M 262.00 237.00 
C 266.63 234.66 272.41 230.12 276.00 226.00
C 297.05 197.69 256.53 161.54 230.25 184.25 C 203.97 206.95 228.92 250.46 262.00 237.00
M 228.00 224.00 
C 216.78 217.49 220.98 200.22 227.75 190.75 C 234.53 181.28 248.29 175.62 259.68 180.32 C 271.07 185.03 278.65 195.61 278.99 208.01 C 279.33 220.41 270.44 231.64 259.77 235.77 C 249.10 239.90 230.27 236.35 228.00 224.00 Z"/>
</g>
<g fill="None" fill-opacity="0.0" stroke="#CCE1FA" stroke-opacity="1.00" stroke-width="0.3"><path d="
M 374.00 199.00 
C 371.38 192.24 363.44 183.67 357.00 180.00
C 327.58 168.59 298.02 202.21 319.75 228.25 C 341.48 254.29 382.50 230.81 374.00 199.00
M 348.00 179.00 
C 362.53 181.08 375.82 197.31 372.67 212.67 C 369.52 228.03 356.00 238.96 339.93 237.07 C 323.86 235.18 312.50 218.33 315.00 203.00 C 317.50 187.67 332.08 176.73 348.00 179.00 Z"/>
</g>
<g fill="None" fill-opacity="0.0" stroke="#EBEAE8" stroke-opacity="1.00" stroke-width="0.3"><path d="
M 129.00 197.00 
C 125.23 205.25 127.90 213.44 131.02 220.98 C 134.15 228.51 138.24 232.45 145.93 235.07 C 153.61 237.69 162.74 237.95 169.30 233.30 C 175.86 228.64 180.22 226.14 183.22 218.22 C 186.22 210.31 186.10 202.28 181.92 195.08 C 177.75 187.88 174.69 184.44 167.02 180.98 C 159.36 177.51 150.74 179.54 143.22 182.22 C 135.71 184.90 133.37 193.51 129.00 197.00 Z"/>
</g>
<g fill="None" fill-opacity="0.0" stroke="#ECEAE8" stroke-opacity="1.00" stroke-width="0.3"><path d="
M 228.00 224.00 
C 230.27 236.35 249.10 239.90 259.77 235.77 C 270.44 231.64 279.33 220.41 278.99 208.01 C 278.65 195.61 271.07 185.03 259.68 180.32 C 248.29 175.62 234.53 181.28 227.75 190.75 C 220.98 200.22 216.78 217.49 228.00 224.00 Z"/>
</g>
<g fill="None" fill-opacity="0.0" stroke="#EBEAE8" stroke-opacity="1.00" stroke-width="0.3"><path d="
M 348.00 179.00 
C 332.08 176.73 317.50 187.67 315.00 203.00 C 312.50 218.33 323.86 235.18 339.93 237.07 C 356.00 238.96 369.52 228.03 372.67 212.67 C 375.82 197.31 362.53 181.08 348.00 179.00 Z"/>
</g>
<g fill="None" fill-opacity="0.0" stroke="#9CBEF0" stroke-opacity="1.00" stroke-width="0.3"><path d="
M 374.00 199.00 
C 371.93 191.25 364.53 182.92 357.00 180.00
C 363.44 183.67 371.38 192.24 374.00 199.00 Z"/>
</g>
<g fill="None" fill-opacity="0.0" stroke="#85B0E3" stroke-opacity="1.00" stroke-width="0.3"><path d="
M 185.00 220.00 
C 187.34 214.38 188.09 210.08 187.00 204.00
C 187.38 209.59 186.33 214.87 185.00 220.00 Z"/>
</g>
<g fill="None" fill-opacity="0.0" stroke="#9EC0F1" stroke-opacity="1.00" stroke-width="0.3"><path d="
M 262.00 237.00 
C 267.65 234.70 272.16 231.16 276.00 226.00
C 272.41 230.12 266.63 234.66 262.00 237.00 Z"/>
</g>
<g fill="None" fill-opacity="0.0" stroke="#3964A3" stroke-opacity="0.31" stroke-width="0.3"><path d="
M 458.00 301.00 
C 458.05 300.01 458.00 298.99 458.00 298.00
C 458.00 298.00 458.00 297.50 458.00 297.00
C 457.91 297.92 458.00 300.17 458.00 301.00 Z"/>
</g>
<g fill="None" fill-opacity="0.0" stroke="#366BB8" stroke-opacity="0.60" stroke-width="0.3"><path d="
M 456.00 308.00 
C 456.03 307.65 456.89 307.26 457.00 307.00
C 456.97 306.50 456.90 305.48 457.00 305.00
C 456.28 306.45 454.11 306.05 456.00 308.00 Z"/>
</g>
<g fill="None" fill-opacity="0.0" stroke="#0F325D" stroke-opacity="0.12" stroke-width="0.3"><path d="
M 456.00 308.00 
C 456.00 308.00 456.00 308.50 456.00 309.00
C 456.00 309.98 456.09 311.03 456.00 312.00
C 456.52 310.41 457.11 309.22 457.00 307.00
C 456.89 307.26 456.03 307.65 456.00 308.00 Z"/>
</g>
<g fill="None" fill-opacity="0.0" stroke="#3765BA" stroke-opacity="0.63" stroke-width="0.3"><path d="
M 454.00 316.00 
C 454.56 314.66 455.82 313.87 456.00 312.00
C 456.09 311.03 456.00 309.98 456.00 309.00
C 452.69 310.53 454.24 313.69 454.00 316.00 Z"/>
</g>
<g fill="None" fill-opacity="0.0" stroke="#234E8A" stroke-opacity="0.32" stroke-width="0.3"><path d="
M 71.00 355.00 
C 67.82 352.23 64.71 348.17 62.00 345.00
C 60.64 343.41 59.17 341.67 58.00 340.00
C 58.00 340.00 57.22 340.25 57.00 340.00
C 60.97 345.34 65.49 350.91 71.00 355.00 Z"/>
</g>
<g fill="None" fill-opacity="0.0" stroke="#3872C6" stroke-opacity="0.76" stroke-width="0.3"><path d="
M 62.00 345.00 
C 66.78 349.78 72.18 354.67 77.00 359.00
C 78.59 360.13 80.31 361.00 82.00 362.00
C 75.65 355.89 66.18 344.00 58.00 340.00
C 59.17 341.67 60.64 343.41 62.00 345.00 Z"/>
</g>
<g fill="None" fill-opacity="0.0" stroke="#386CB5" stroke-opacity="0.58" stroke-width="0.3"><path d="
M 71.00 355.00 
C 72.93 356.44 75.01 357.58 77.00 359.00
C 72.18 354.67 66.78 349.78 62.00 345.00
C 64.71 348.17 67.82 352.23 71.00 355.00 Z"/>
</g>
<g fill="None" fill-opacity="0.0" stroke="#376EBC" stroke-opacity="0.70" stroke-width="0.3"><path d="
M 413.00 365.00 
C 416.51 363.25 419.66 361.02 423.00 359.00
C 425.00 357.79 427.02 356.69 429.00 355.00
C 426.66 355.90 416.90 359.81 413.00 365.00 Z"/>
</g>
<g fill="None" fill-opacity="0.0" stroke="#27508A" stroke-opacity="0.31" stroke-width="0.3"><path d="
M 413.00 365.00 
C 412.67 365.17 412.27 365.82 412.00 366.00
C 416.27 363.98 419.29 361.84 423.00 359.00
C 419.66 361.02 416.51 363.25 413.00 365.00 Z"/>
</g>
<g fill="None" fill-opacity="0.0" stroke="#376FC2" stroke-opacity="0.67" stroke-width="0.3"><path d="
M 398.00 371.00 
C 398.94 370.67 401.01 371.00 401.00 371.00
C 402.42 370.23 403.57 369.60 405.00 369.00
C 402.22 369.42 401.11 369.02 398.00 371.00 Z"/>
</g>
<g fill="None" fill-opacity="0.0" stroke="#3A6BB5" stroke-opacity="0.56" stroke-width="0.3"><path d="
M 99.00 370.00 
C 99.85 370.41 100.74 371.79 102.00 372.00
C 102.49 372.08 103.50 372.00 104.00 372.00
C 101.49 370.52 101.88 370.42 99.00 370.00 Z"/>
</g>
<g fill="None" fill-opacity="0.0" stroke="#0D2F62" stroke-opacity="0.15" stroke-width="0.3"><path d="
M 398.00 371.00 
C 396.86 371.40 395.86 372.64 395.00 373.00
C 397.45 372.54 399.03 372.07 401.00 371.00
C 401.01 371.00 398.94 370.67 398.00 371.00 Z"/>
</g>
<g fill="None" fill-opacity="0.0" stroke="#376EC1" stroke-opacity="0.63" stroke-width="0.3"><path d="
M 107.00 372.00 
C 107.55 372.11 109.50 373.90 110.00 374.00
C 111.00 374.03 112.00 374.00 113.00 374.00
C 113.85 374.00 116.29 373.57 117.00 374.00
C 119.12 370.72 108.84 371.65 107.00 372.00 Z"/>
</g>
<g fill="None" fill-opacity="0.0" stroke="#06276A" stroke-opacity="0.08" stroke-width="0.3"><path d="
M 110.00 374.00 
C 109.50 373.90 107.55 372.11 107.00 372.00
C 106.09 372.17 104.93 372.00 104.00 372.00
C 103.50 372.00 102.49 372.08 102.00 372.00
C 104.41 373.16 106.95 373.90 110.00 374.00 Z"/>
</g>
<g fill="None" fill-opacity="0.0" stroke="#3970C1" stroke-opacity="0.65" stroke-width="0.3"><path d="
M 122.00 375.00 
C 122.00 375.00 122.51 374.93 123.00 375.00
C 126.07 375.45 124.95 379.39 125.00 382.00
C 125.38 401.24 123.69 420.81 125.00 440.00
C 125.05 440.23 125.93 440.65 126.00 441.00
C 130.25 438.87 125.23 426.80 127.00 422.00 C 128.77 417.20 125.16 408.88 127.00 403.00 C 128.84 397.12 123.94 389.41 127.00 383.00 C 130.06 376.59 120.13 371.89 122.00 375.00 Z"/>
</g>
<g fill="None" fill-opacity="0.0" stroke="#072D60" stroke-opacity="0.06" stroke-width="0.3"><path d="
M 117.00 375.00 
C 117.00 375.00 116.77 374.35 117.00 374.00
C 116.29 373.57 113.85 374.00 113.00 374.00
C 113.99 374.17 115.39 374.92 117.00 375.00 Z"/>
</g>
<g fill="None" fill-opacity="0.0" stroke="#00013B" stroke-opacity="0.04" stroke-width="0.3"><path d="
M 125.00 382.00 
C 124.95 379.39 126.07 375.45 123.00 375.00
C 124.06 376.31 124.85 380.76 125.00 382.00 Z"/>
</g>
<g fill="None" fill-opacity="0.0" stroke="#2F5DA3" stroke-opacity="0.37" stroke-width="0.3"><path d="
M 158.00 454.00 
C 173.12 443.52 183.34 426.20 197.75 414.75 C 212.16 403.30 222.61 386.13 237.00 375.00
C 228.86 377.81 223.98 389.78 216.75 394.75 C 209.52 399.72 204.24 408.55 197.25 414.25 C 190.26 419.95 184.28 428.45 177.25 434.25 C 170.22 440.04 164.96 448.34 158.00 454.00 Z"/>
</g>
<g fill="None" fill-opacity="0.0" stroke="#0E3065" stroke-opacity="0.09" stroke-width="0.3"><path d="
M 158.00 454.00 
C 155.88 455.47 152.56 457.55 150.00 458.00
C 153.08 457.89 156.69 456.46 160.00 454.00
C 169.11 446.06 176.43 435.44 186.00 428.00
C 186.20 427.68 186.68 427.20 187.00 427.00
C 188.51 425.06 190.35 423.65 192.00 422.00
C 196.60 416.62 203.03 411.00 207.75 405.75 C 212.47 400.50 219.71 396.03 223.25 390.25 C 226.79 384.46 237.32 380.75 239.00 375.00
C 238.50 375.00 237.45 374.85 237.00 375.00
C 222.61 386.13 212.16 403.30 197.75 414.75 C 183.34 426.20 173.12 443.52 158.00 454.00 Z"/>
</g>
<g fill="None" fill-opacity="0.0" stroke="#000050" stroke-opacity="0.01" stroke-width="0.3"><path d="
M 187.00 427.00 
C 189.09 425.71 190.41 423.86 192.00 422.00
C 190.35 423.65 188.51 425.06 187.00 427.00 Z"/>
</g>
<g fill="None" fill-opacity="0.0" stroke="#000042" stroke-opacity="0.02" stroke-width="0.3"><path d="
M 160.00 454.00 
C 168.34 447.80 180.49 436.92 186.00 428.00
C 176.43 435.44 169.11 446.06 160.00 454.00 Z"/>
</g>
<g fill="None" fill-opacity="0.0" stroke="#0F3062" stroke-opacity="0.10" stroke-width="0.3"><path d="
M 141.00 458.00 
C 139.63 457.72 136.52 455.93 135.00 455.00
C 131.78 453.03 129.52 450.07 128.00 447.00
C 126.93 444.83 126.44 443.35 126.00 441.00
C 125.93 440.65 125.05 440.23 125.00 440.00
C 125.61 448.91 131.84 456.86 141.00 458.00 Z"/>
</g>
<g fill="None" fill-opacity="0.0" stroke="#3260A4" stroke-opacity="0.37" stroke-width="0.3"><path d="
M 135.00 455.00 
C 132.87 453.46 129.34 449.17 128.00 447.00
C 129.52 450.07 131.78 453.03 135.00 455.00 Z"/>
</g>
<g fill="#000000" fill-opacity="0.00" stroke="None">
<path d="
M 0.00 500.00 
L 500.00 500.00
L 500.00 0.00
L 0.00 0.00
L 0.00 500.00
M 382.00 42.00 
C 385.58 42.28 389.54 43.01 393.00 44.00
C 394.02 44.29 394.96 44.73 396.00 45.00
C 398.01 45.53 399.99 45.38 402.00 46.00
C 418.09 48.66 440.41 65.29 447.00 82.00
C 447.17 82.43 447.00 83.00 447.00 83.00
C 452.03 86.14 455.86 98.34 456.00 104.00
C 456.01 104.50 455.88 105.53 456.00 106.00
C 456.22 106.84 456.90 107.64 457.00 109.00
C 457.09 110.32 456.87 111.68 457.00 113.00
C 457.17 114.74 457.81 116.15 458.00 118.00
C 462.03 136.37 458.34 157.51 459.00 177.00 C 459.66 196.49 459.72 218.45 459.00 238.00 C 458.28 257.55 462.05 279.57 458.00 298.00
C 458.00 298.99 458.05 300.01 458.00 301.00
C 457.91 302.71 457.32 303.46 457.00 305.00
C 456.90 305.48 456.97 306.50 457.00 307.00
C 457.11 309.22 456.52 310.41 456.00 312.00
C 455.82 313.87 454.56 314.66 454.00 316.00
C 447.82 330.81 441.93 343.95 429.00 355.00
C 427.02 356.69 425.00 357.79 423.00 359.00
C 419.29 361.84 416.27 363.98 412.00 366.00
C 409.64 367.12 407.34 368.02 405.00 369.00
C 403.57 369.60 402.42 370.23 401.00 371.00
C 399.03 372.07 397.45 372.54 395.00 373.00
C 370.14 377.63 343.85 374.33 318.00 375.00 C 292.15 375.67 264.97 375.00 239.00 375.00
C 237.32 380.75 226.79 384.46 223.25 390.25 C 219.71 396.03 212.47 400.50 207.75 405.75 C 203.03 411.00 196.60 416.62 192.00 422.00
C 190.41 423.86 189.09 425.71 187.00 427.00
C 186.68 427.20 186.20 427.68 186.00 428.00
C 180.49 436.92 168.34 447.80 160.00 454.00
C 156.69 456.46 153.08 457.89 150.00 458.00
C 147.12 458.11 143.85 458.35 141.00 458.00
C 131.84 456.86 125.61 448.91 125.00 440.00
C 123.69 420.81 125.38 401.24 125.00 382.00
C 124.85 380.76 124.06 376.31 123.00 375.00
C 122.51 374.93 122.00 375.00 122.00 375.00
C 120.34 375.00 118.66 375.08 117.00 375.00
C 115.39 374.92 113.99 374.17 113.00 374.00
C 112.00 374.00 111.00 374.03 110.00 374.00
C 106.95 373.90 104.41 373.16 102.00 372.00
C 100.74 371.79 99.85 370.41 99.00 370.00
C 93.29 367.22 86.76 366.58 82.00 362.00
C 80.31 361.00 78.59 360.13 77.00 359.00
C 75.01 357.58 72.93 356.44 71.00 355.00
C 65.49 350.91 60.97 345.34 57.00 340.00
C 48.37 330.12 42.87 312.81 42.00 300.00
C 36.92 271.64 41.45 238.45 41.00 209.00 C 40.55 179.55 38.12 146.48 42.00 118.00
C 42.00 116.67 41.95 115.33 42.00 114.00
C 42.07 112.10 42.54 111.34 43.00 110.00
C 44.68 98.85 50.19 88.29 56.00 79.00
C 57.23 77.03 58.70 75.69 60.00 74.00
C 65.88 66.33 72.49 59.59 81.00 55.00
C 81.77 54.39 82.08 53.58 83.00 53.00
C 88.94 47.29 98.72 43.85 107.00 43.00
C 109.75 42.72 112.48 42.31 115.00 42.00
C 116.29 41.84 117.70 42.00 119.00 42.00
C 146.79 38.21 177.25 41.37 206.00 41.00 C 234.75 40.63 265.27 39.67 294.00 41.00 C 322.73 42.33 354.47 36.69 382.00 42.00 Z"/>
</g>
<g fill="#0F2D5F" fill-opacity="0.16" stroke="None">
<path d="
M 119.00 42.00 
C 120.00 42.00 121.00 42.00 122.00 42.00
C 165.21 42.00 208.83 40.72 252.00 42.00 C 295.17 43.28 338.99 38.59 382.00 42.00
C 354.47 36.69 322.73 42.33 294.00 41.00 C 265.27 39.67 234.75 40.63 206.00 41.00 C 177.25 41.37 146.79 38.21 119.00 42.00 Z"/>
</g>
<g fill="#2875E1" fill-opacity="1.00" stroke="None">
<path d="
M 107.00 43.00 
C 103.73 43.68 98.47 45.76 95.00 47.00
C 93.45 47.71 91.90 49.24 90.00 50.00
C 88.34 50.66 86.65 51.10 85.00 52.00
C 83.64 52.89 82.62 54.13 81.00 55.00
C 72.49 59.59 65.88 66.33 60.00 74.00
C 59.24 75.67 56.78 78.21 56.00 79.00
C 50.19 88.29 44.68 98.85 43.00 110.00
C 42.86 110.94 43.00 112.05 43.00 113.00
C 43.48 114.95 45.05 117.01 43.00 119.00
C 42.95 119.15 42.00 119.00 42.00 119.00
C 42.00 149.06 41.22 178.92 42.00 209.00 C 42.78 239.08 39.95 269.95 42.00 300.00
C 42.87 312.81 48.37 330.12 57.00 340.00
C 57.22 340.25 58.00 340.00 58.00 340.00
C 66.18 344.00 75.65 355.89 82.00 362.00
C 86.76 366.58 93.29 367.22 99.00 370.00
C 101.88 370.42 101.49 370.52 104.00 372.00
C 104.93 372.00 106.09 372.17 107.00 372.00
C 108.84 371.65 119.12 370.72 117.00 374.00
C 116.77 374.35 117.00 375.00 117.00 375.00
C 118.66 375.08 120.34 375.00 122.00 375.00
C 120.13 371.89 130.06 376.59 127.00 383.00 C 123.94 389.41 128.84 397.12 127.00 403.00 C 125.16 408.88 128.77 417.20 127.00 422.00 C 125.23 426.80 130.25 438.87 126.00 441.00
C 126.44 443.35 126.93 444.83 128.00 447.00
C 129.34 449.17 132.87 453.46 135.00 455.00
C 136.52 455.93 139.63 457.72 141.00 458.00
C 143.85 458.35 147.12 458.11 150.00 458.00
C 152.56 457.55 155.88 455.47 158.00 454.00
C 164.96 448.34 170.22 440.04 177.25 434.25 C 184.28 428.45 190.26 419.95 197.25 414.25 C 204.24 408.55 209.52 399.72 216.75 394.75 C 223.98 389.78 228.86 377.81 237.00 375.00
C 237.45 374.85 238.50 375.00 239.00 375.00
C 264.97 375.00 292.15 375.67 318.00 375.00 C 343.85 374.33 370.14 377.63 395.00 373.00
C 395.86 372.64 396.86 371.40 398.00 371.00
C 401.11 369.02 402.22 369.42 405.00 369.00
C 407.34 368.02 409.64 367.12 412.00 366.00
C 412.27 365.82 412.67 365.17 413.00 365.00
C 416.90 359.81 426.66 355.90 429.00 355.00
C 441.93 343.95 447.82 330.81 454.00 316.00
C 454.24 313.69 452.69 310.53 456.00 309.00
C 456.00 308.50 456.00 308.00 456.00 308.00
C 454.11 306.05 456.28 306.45 457.00 305.00
C 457.32 303.46 457.91 302.71 458.00 301.00
C 458.00 300.17 457.91 297.92 458.00 297.00
C 458.02 267.35 459.13 237.65 458.00 208.00 C 456.87 178.35 460.98 147.52 458.00 118.00
C 457.81 116.15 457.17 114.74 457.00 113.00
C 456.73 112.25 455.13 113.13 455.04 110.96 C 454.94 108.80 456.83 109.77 457.00 109.00
C 456.90 107.64 456.22 106.84 456.00 106.00
C 455.68 105.66 452.36 106.97 455.00 104.00
C 454.11 97.46 450.85 90.79 448.00 85.00
C 447.87 84.78 447.00 85.00 447.00 85.00
C 444.86 83.54 439.01 75.59 440.00 74.00
C 439.81 73.59 440.00 73.00 440.00 73.00
C 434.91 69.44 431.09 64.09 426.00 61.00
C 420.39 57.60 415.11 53.73 410.00 50.00
C 407.53 48.87 404.86 46.89 402.00 46.00
C 399.99 45.38 398.01 45.53 396.00 45.00
C 393.77 44.87 394.73 44.75 393.00 44.00
C 389.54 43.01 385.58 42.28 382.00 42.00
C 338.99 38.59 295.17 43.28 252.00 42.00 C 208.83 40.72 165.21 42.00 122.00 42.00
C 120.13 42.18 116.67 42.00 115.00 42.00
C 112.48 42.31 109.75 42.72 107.00 43.00
M 187.00 204.00 
C 188.09 210.08 187.34 214.38 185.00 220.00
C 175.81 255.44 118.69 237.38 125.33 203.33 C 131.97 169.28 184.63 169.19 187.00 204.00
M 276.00 226.00 
C 272.16 231.16 267.65 234.70 262.00 237.00
C 228.92 250.46 203.97 206.95 230.25 184.25 C 256.53 161.54 297.05 197.69 276.00 226.00
M 357.00 180.00 
C 364.53 182.92 371.93 191.25 374.00 199.00
C 382.50 230.81 341.48 254.29 319.75 228.25 C 298.02 202.21 327.58 168.59 357.00 180.00 Z"/>
</g>
<g fill="#3F67AC" fill-opacity="0.34" stroke="None">
<path d="
M 122.00 42.00 
C 121.00 42.00 120.00 42.00 119.00 42.00
C 117.70 42.00 116.29 41.84 115.00 42.00
C 116.67 42.00 120.13 42.18 122.00 42.00 Z"/>
</g>
<g fill="#001C4F" fill-opacity="0.10" stroke="None">
<path d="
M 83.00 53.00 
C 83.66 52.59 84.34 52.36 85.00 52.00
C 86.65 51.10 88.34 50.66 90.00 50.00
C 91.57 49.22 93.12 47.67 95.00 47.00
C 98.47 45.76 103.73 43.68 107.00 43.00
C 98.72 43.85 88.94 47.29 83.00 53.00 Z"/>
</g>
<g fill="#3B6FC2" fill-opacity="0.73" stroke="None">
<path d="
M 396.00 45.00 
C 394.96 44.73 394.02 44.29 393.00 44.00
C 394.73 44.75 393.77 44.87 396.00 45.00 Z"/>
</g>
<g fill="#011B4A" fill-opacity="0.10" stroke="None">
<path d="
M 402.00 46.00 
C 404.86 46.89 407.53 48.87 410.00 50.00
C 410.85 50.39 412.05 50.57 413.00 51.00
C 414.89 51.85 416.53 52.82 418.00 54.00
C 418.50 54.05 419.00 54.00 419.00 54.00
C 425.49 58.96 436.20 65.23 440.00 73.00
C 440.00 73.00 439.81 73.59 440.00 74.00
C 440.12 74.26 440.83 74.67 441.00 75.00
C 442.58 76.54 443.79 78.06 445.00 80.00
C 445.22 80.36 445.00 81.00 445.00 81.00
C 445.21 81.42 446.86 81.72 447.00 82.00
C 440.41 65.29 418.09 48.66 402.00 46.00 Z"/>
</g>
<g fill="#255494" fill-opacity="0.41" stroke="None">
<path d="
M 90.00 50.00 
C 91.90 49.24 93.45 47.71 95.00 47.00
C 93.12 47.67 91.57 49.22 90.00 50.00 Z"/>
</g>
<g fill="#3870C1" fill-opacity="0.78" stroke="None">
<path d="
M 426.00 61.00 
C 423.64 59.19 420.74 56.50 419.00 54.00
C 419.00 54.00 418.50 54.05 418.00 54.00
C 415.39 53.76 414.79 52.17 413.00 51.00
C 412.05 50.57 410.85 50.39 410.00 50.00
C 415.11 53.73 420.39 57.60 426.00 61.00 Z"/>
</g>
<g fill="#2C5A9A" fill-opacity="0.47" stroke="None">
<path d="
M 418.00 54.00 
C 416.53 52.82 414.89 51.85 413.00 51.00
C 414.79 52.17 415.39 53.76 418.00 54.00 Z"/>
</g>
<g fill="#28558C" fill-opacity="0.35" stroke="None">
<path d="
M 83.00 53.00 
C 82.08 53.58 81.77 54.39 81.00 55.00
C 82.62 54.13 83.64 52.89 85.00 52.00
C 84.34 52.36 83.66 52.59 83.00 53.00 Z"/>
</g>
<g fill="#2B5495" fill-opacity="0.42" stroke="None">
<path d="
M 426.00 61.00 
C 431.09 64.09 434.91 69.44 440.00 73.00
C 436.20 65.23 425.49 58.96 419.00 54.00
C 420.74 56.50 423.64 59.19 426.00 61.00 Z"/>
</g>
<g fill="#3466B4" fill-opacity="0.63" stroke="None">
<path d="
M 56.00 79.00 
C 56.78 78.21 59.24 75.67 60.00 74.00
C 58.70 75.69 57.23 77.03 56.00 79.00 Z"/>
</g>
<g fill="#3B74C5" fill-opacity="0.77" stroke="None">
<path d="
M 447.00 85.00 
C 446.18 83.93 445.44 82.26 445.00 81.00
C 445.00 81.00 445.22 80.36 445.00 80.00
C 442.87 78.61 442.09 77.19 441.00 75.00
C 440.83 74.67 440.12 74.26 440.00 74.00
C 439.01 75.59 444.86 83.54 447.00 85.00 Z"/>
</g>
<g fill="#245596" fill-opacity="0.41" stroke="None">
<path d="
M 445.00 80.00 
C 443.79 78.06 442.58 76.54 441.00 75.00
C 442.09 77.19 442.87 78.61 445.00 80.00 Z"/>
</g>
<g fill="#265790" fill-opacity="0.35" stroke="None">
<path d="
M 447.00 85.00 
C 447.00 85.00 447.87 84.78 448.00 85.00
C 447.65 84.28 447.15 83.81 447.00 83.00
C 447.00 83.00 447.17 82.43 447.00 82.00
C 446.86 81.72 445.21 81.42 445.00 81.00
C 445.44 82.26 446.18 83.93 447.00 85.00 Z"/>
</g>
<g fill="#05265C" fill-opacity="0.11" stroke="None">
<path d="
M 448.00 85.00 
C 450.85 90.79 454.11 97.46 455.00 104.00
C 455.01 104.07 456.00 104.00 456.00 104.00
C 455.86 98.34 452.03 86.14 447.00 83.00
C 447.15 83.81 447.65 84.28 448.00 85.00 Z"/>
</g>
<g fill="#356CBB" fill-opacity="0.63" stroke="None">
<path d="
M 456.00 106.00 
C 455.88 105.53 456.01 104.50 456.00 104.00
C 456.00 104.00 455.01 104.07 455.00 104.00
C 452.36 106.97 455.68 105.66 456.00 106.00 Z"/>
</g>
<g fill="#356DBE" fill-opacity="0.66" stroke="None">
<path d="
M 457.00 113.00 
C 456.87 111.68 457.09 110.32 457.00 109.00
C 456.83 109.77 454.94 108.80 455.04 110.96 C 455.13 113.13 456.73 112.25 457.00 113.00 Z"/>
</g>
<g fill="#062754" fill-opacity="0.08" stroke="None">
<path d="
M 42.00 114.00 
C 42.13 113.78 43.00 114.00 43.00 114.00
C 43.00 113.50 43.00 113.00 43.00 113.00
C 43.00 112.05 42.86 110.94 43.00 110.00
C 42.54 111.34 42.07 112.10 42.00 114.00 Z"/>
</g>
<g fill="#3E72C8" fill-opacity="0.84" stroke="None">
<path d="
M 43.00 114.00 
C 43.00 115.39 43.45 117.69 43.00 119.00
C 45.05 117.01 43.48 114.95 43.00 113.00
C 43.00 113.00 43.00 113.50 43.00 114.00 Z"/>
</g>
<g fill="#365A9E" fill-opacity="0.26" stroke="None">
<path d="
M 42.00 118.00 
C 42.00 118.50 42.00 119.00 42.00 119.00
C 42.00 119.00 42.95 119.15 43.00 119.00
C 43.45 117.69 43.00 115.39 43.00 114.00
C 43.00 114.00 42.13 113.78 42.00 114.00
C 41.95 115.33 42.00 116.67 42.00 118.00 Z"/>
</g>
<g fill="#0A2B5E" fill-opacity="0.12" stroke="None">
<path d="
M 42.00 300.00 
C 39.95 269.95 42.78 239.08 42.00 209.00 C 41.22 178.92 42.00 149.06 42.00 119.00
C 42.00 119.00 42.00 118.50 42.00 118.00
C 38.12 146.48 40.55 179.55 41.00 209.00 C 41.45 238.45 36.92 271.64 42.00 300.00 Z"/>
</g>
<g fill="#0E2C5D" fill-opacity="0.11" stroke="None">
<path d="
M 458.00 297.00 
C 458.00 297.50 458.00 298.00 458.00 298.00
C 462.05 279.57 458.28 257.55 459.00 238.00 C 459.72 218.45 459.66 196.49 459.00 177.00 C 458.34 157.51 462.03 136.37 458.00 118.00
C 460.98 147.52 456.87 178.35 458.00 208.00 C 459.13 237.65 458.02 267.35 458.00 297.00 Z"/>
</g>
<g fill="#CEE2F9" fill-opacity="1.00" stroke="None">
<path d="
M 185.00 220.00 
C 186.33 214.87 187.38 209.59 187.00 204.00
C 184.63 169.19 131.97 169.28 125.33 203.33 C 118.69 237.38 175.81 255.44 185.00 220.00
M 129.00 197.00 
C 133.37 193.51 135.71 184.90 143.22 182.22 C 150.74 179.54 159.36 177.51 167.02 180.98 C 174.69 184.44 177.75 187.88 181.92 195.08 C 186.10 202.28 186.22 210.31 183.22 218.22 C 180.22 226.14 175.86 228.64 169.30 233.30 C 162.74 237.95 153.61 237.69 145.93 235.07 C 138.24 232.45 134.15 228.51 131.02 220.98 C 127.90 213.44 125.23 205.25 129.00 197.00 Z"/>
</g>
<g fill="#CFE4FB" fill-opacity="1.00" stroke="None">
<path d="
M 262.00 237.00 
C 266.63 234.66 272.41 230.12 276.00 226.00
C 297.05 197.69 256.53 161.54 230.25 184.25 C 203.97 206.95 228.92 250.46 262.00 237.00
M 228.00 224.00 
C 216.78 217.49 220.98 200.22 227.75 190.75 C 234.53 181.28 248.29 175.62 259.68 180.32 C 271.07 185.03 278.65 195.61 278.99 208.01 C 279.33 220.41 270.44 231.64 259.77 235.77 C 249.10 239.90 230.27 236.35 228.00 224.00 Z"/>
</g>
<g fill="#CCE1FA" fill-opacity="1.00" stroke="None">
<path d="
M 374.00 199.00 
C 371.38 192.24 363.44 183.67 357.00 180.00
C 327.58 168.59 298.02 202.21 319.75 228.25 C 341.48 254.29 382.50 230.81 374.00 199.00
M 348.00 179.00 
C 362.53 181.08 375.82 197.31 372.67 212.67 C 369.52 228.03 356.00 238.96 339.93 237.07 C 323.86 235.18 312.50 218.33 315.00 203.00 C 317.50 187.67 332.08 176.73 348.00 179.00 Z"/>
</g>
<g fill="#EBEAE8" fill-opacity="1.00" stroke="None">
<path d="
M 129.00 197.00 
C 125.23 205.25 127.90 213.44 131.02 220.98 C 134.15 228.51 138.24 232.45 145.93 235.07 C 153.61 237.69 162.74 237.95 169.30 233.30 C 175.86 228.64 180.22 226.14 183.22 218.22 C 186.22 210.31 186.10 202.28 181.92 195.08 C 177.75 187.88 174.69 184.44 167.02 180.98 C 159.36 177.51 150.74 179.54 143.22 182.22 C 135.71 184.90 133.37 193.51 129.00 197.00 Z"/>
</g>
<g fill="#ECEAE8" fill-opacity="1.00" stroke="None">
<path d="
M 228.00 224.00 
C 230.27 236.35 249.10 239.90 259.77 235.77 C 270.44 231.64 279.33 220.41 278.99 208.01 C 278.65 195.61 271.07 185.03 259.68 180.32 C 248.29 175.62 234.53 181.28 227.75 190.75 C 220.98 200.22 216.78 217.49 228.00 224.00 Z"/>
</g>
<g fill="#EBEAE8" fill-opacity="1.00" stroke="None">
<path d="
M 348.00 179.00 
C 332.08 176.73 317.50 187.67 315.00 203.00 C 312.50 218.33 323.86 235.18 339.93 237.07 C 356.00 238.96 369.52 228.03 372.67 212.67 C 375.82 197.31 362.53 181.08 348.00 179.00 Z"/>
</g>
<g fill="#9CBEF0" fill-opacity="1.00" stroke="None">
<path d="
M 374.00 199.00 
C 371.93 191.25 364.53 182.92 357.00 180.00
C 363.44 183.67 371.38 192.24 374.00 199.00 Z"/>
</g>
<g fill="#85B0E3" fill-opacity="1.00" stroke="None">
<path d="
M 185.00 220.00 
C 187.34 214.38 188.09 210.08 187.00 204.00
C 187.38 209.59 186.33 214.87 185.00 220.00 Z"/>
</g>
<g fill="#9EC0F1" fill-opacity="1.00" stroke="None">
<path d="
M 262.00 237.00 
C 267.65 234.70 272.16 231.16 276.00 226.00
C 272.41 230.12 266.63 234.66 262.00 237.00 Z"/>
</g>
<g fill="#3964A3" fill-opacity="0.31" stroke="None">
<path d="
M 458.00 301.00 
C 458.05 300.01 458.00 298.99 458.00 298.00
C 458.00 298.00 458.00 297.50 458.00 297.00
C 457.91 297.92 458.00 300.17 458.00 301.00 Z"/>
</g>
<g fill="#366BB8" fill-opacity="0.60" stroke="None">
<path d="
M 456.00 308.00 
C 456.03 307.65 456.89 307.26 457.00 307.00
C 456.97 306.50 456.90 305.48 457.00 305.00
C 456.28 306.45 454.11 306.05 456.00 308.00 Z"/>
</g>
<g fill="#0F325D" fill-opacity="0.12" stroke="None">
<path d="
M 456.00 308.00 
C 456.00 308.00 456.00 308.50 456.00 309.00
C 456.00 309.98 456.09 311.03 456.00 312.00
C 456.52 310.41 457.11 309.22 457.00 307.00
C 456.89 307.26 456.03 307.65 456.00 308.00 Z"/>
</g>
<g fill="#3765BA" fill-opacity="0.63" stroke="None">
<path d="
M 454.00 316.00 
C 454.56 314.66 455.82 313.87 456.00 312.00
C 456.09 311.03 456.00 309.98 456.00 309.00
C 452.69 310.53 454.24 313.69 454.00 316.00 Z"/>
</g>
<g fill="#234E8A" fill-opacity="0.32" stroke="None">
<path d="
M 71.00 355.00 
C 67.82 352.23 64.71 348.17 62.00 345.00
C 60.64 343.41 59.17 341.67 58.00 340.00
C 58.00 340.00 57.22 340.25 57.00 340.00
C 60.97 345.34 65.49 350.91 71.00 355.00 Z"/>
</g>
<g fill="#3872C6" fill-opacity="0.76" stroke="None">
<path d="
M 62.00 345.00 
C 66.78 349.78 72.18 354.67 77.00 359.00
C 78.59 360.13 80.31 361.00 82.00 362.00
C 75.65 355.89 66.18 344.00 58.00 340.00
C 59.17 341.67 60.64 343.41 62.00 345.00 Z"/>
</g>
<g fill="#386CB5" fill-opacity="0.58" stroke="None">
<path d="
M 71.00 355.00 
C 72.93 356.44 75.01 357.58 77.00 359.00
C 72.18 354.67 66.78 349.78 62.00 345.00
C 64.71 348.17 67.82 352.23 71.00 355.00 Z"/>
</g>
<g fill="#376EBC" fill-opacity="0.70" stroke="None">
<path d="
M 413.00 365.00 
C 416.51 363.25 419.66 361.02 423.00 359.00
C 425.00 357.79 427.02 356.69 429.00 355.00
C 426.66 355.90 416.90 359.81 413.00 365.00 Z"/>
</g>
<g fill="#27508A" fill-opacity="0.31" stroke="None">
<path d="
M 413.00 365.00 
C 412.67 365.17 412.27 365.82 412.00 366.00
C 416.27 363.98 419.29 361.84 423.00 359.00
C 419.66 361.02 416.51 363.25 413.00 365.00 Z"/>
</g>
<g fill="#376FC2" fill-opacity="0.67" stroke="None">
<path d="
M 398.00 371.00 
C 398.94 370.67 401.01 371.00 401.00 371.00
C 402.42 370.23 403.57 369.60 405.00 369.00
C 402.22 369.42 401.11 369.02 398.00 371.00 Z"/>
</g>
<g fill="#3A6BB5" fill-opacity="0.56" stroke="None">
<path d="
M 99.00 370.00 
C 99.85 370.41 100.74 371.79 102.00 372.00
C 102.49 372.08 103.50 372.00 104.00 372.00
C 101.49 370.52 101.88 370.42 99.00 370.00 Z"/>
</g>
<g fill="#0D2F62" fill-opacity="0.15" stroke="None">
<path d="
M 398.00 371.00 
C 396.86 371.40 395.86 372.64 395.00 373.00
C 397.45 372.54 399.03 372.07 401.00 371.00
C 401.01 371.00 398.94 370.67 398.00 371.00 Z"/>
</g>
<g fill="#376EC1" fill-opacity="0.63" stroke="None">
<path d="
M 107.00 372.00 
C 107.55 372.11 109.50 373.90 110.00 374.00
C 111.00 374.03 112.00 374.00 113.00 374.00
C 113.85 374.00 116.29 373.57 117.00 374.00
C 119.12 370.72 108.84 371.65 107.00 372.00 Z"/>
</g>
<g fill="#06276A" fill-opacity="0.08" stroke="None">
<path d="
M 110.00 374.00 
C 109.50 373.90 107.55 372.11 107.00 372.00
C 106.09 372.17 104.93 372.00 104.00 372.00
C 103.50 372.00 102.49 372.08 102.00 372.00
C 104.41 373.16 106.95 373.90 110.00 374.00 Z"/>
</g>
<g fill="#3970C1" fill-opacity="0.65" stroke="None">
<path d="
M 122.00 375.00 
C 122.00 375.00 122.51 374.93 123.00 375.00
C 126.07 375.45 124.95 379.39 125.00 382.00
C 125.38 401.24 123.69 420.81 125.00 440.00
C 125.05 440.23 125.93 440.65 126.00 441.00
C 130.25 438.87 125.23 426.80 127.00 422.00 C 128.77 417.20 125.16 408.88 127.00 403.00 C 128.84 397.12 123.94 389.41 127.00 383.00 C 130.06 376.59 120.13 371.89 122.00 375.00 Z"/>
</g>
<g fill="#072D60" fill-opacity="0.06" stroke="None">
<path d="
M 117.00 375.00 
C 117.00 375.00 116.77 374.35 117.00 374.00
C 116.29 373.57 113.85 374.00 113.00 374.00
C 113.99 374.17 115.39 374.92 117.00 375.00 Z"/>
</g>
<g fill="#00013B" fill-opacity="0.04" stroke="None">
<path d="
M 125.00 382.00 
C 124.95 379.39 126.07 375.45 123.00 375.00
C 124.06 376.31 124.85 380.76 125.00 382.00 Z"/>
</g>
<g fill="#2F5DA3" fill-opacity="0.37" stroke="None">
<path d="
M 158.00 454.00 
C 173.12 443.52 183.34 426.20 197.75 414.75 C 212.16 403.30 222.61 386.13 237.00 375.00
C 228.86 377.81 223.98 389.78 216.75 394.75 C 209.52 399.72 204.24 408.55 197.25 414.25 C 190.26 419.95 184.28 428.45 177.25 434.25 C 170.22 440.04 164.96 448.34 158.00 454.00 Z"/>
</g>
<g fill="#0E3065" fill-opacity="0.09" stroke="None">
<path d="
M 158.00 454.00 
C 155.88 455.47 152.56 457.55 150.00 458.00
C 153.08 457.89 156.69 456.46 160.00 454.00
C 169.11 446.06 176.43 435.44 186.00 428.00
C 186.20 427.68 186.68 427.20 187.00 427.00
C 188.51 425.06 190.35 423.65 192.00 422.00
C 196.60 416.62 203.03 411.00 207.75 405.75 C 212.47 400.50 219.71 396.03 223.25 390.25 C 226.79 384.46 237.32 380.75 239.00 375.00
C 238.50 375.00 237.45 374.85 237.00 375.00
C 222.61 386.13 212.16 403.30 197.75 414.75 C 183.34 426.20 173.12 443.52 158.00 454.00 Z"/>
</g>
<g fill="#000050" fill-opacity="0.01" stroke="None">
<path d="
M 187.00 427.00 
C 189.09 425.71 190.41 423.86 192.00 422.00
C 190.35 423.65 188.51 425.06 187.00 427.00 Z"/>
</g>
<g fill="#000042" fill-opacity="0.02" stroke="None">
<path d="
M 160.00 454.00 
C 168.34 447.80 180.49 436.92 186.00 428.00
C 176.43 435.44 169.11 446.06 160.00 454.00 Z"/>
</g>
<g fill="#0F3062" fill-opacity="0.10" stroke="None">
<path d="
M 141.00 458.00 
C 139.63 457.72 136.52 455.93 135.00 455.00
C 131.78 453.03 129.52 450.07 128.00 447.00
C 126.93 444.83 126.44 443.35 126.00 441.00
C 125.93 440.65 125.05 440.23 125.00 440.00
C 125.61 448.91 131.84 456.86 141.00 458.00 Z"/>
</g>
<g fill="#3260A4" fill-opacity="0.37" stroke="None">
<path d="
M 135.00 455.00 
C 132.87 453.46 129.34 449.17 128.00 447.00
C 129.52 450.07 131.78 453.03 135.00 455.00 Z"/>
</g>
</svg>